# Vosta Engine built-in unit cube (24 vertices, 36 indices, flat normals + UVs)
# Centered at origin, side length 1. Single material "default".

o Cube
usemtl default

# --- Positions (4 corners per face, in CCW order seen from outside) ---

# Front face (+Z)
v -0.5 -0.5 0.5
v 0.5 -0.5 0.5
v 0.5 0.5 0.5
v -0.5 0.5 0.5

# Back face (-Z)
v 0.5 -0.5 -0.5
v -0.5 -0.5 -0.5
v -0.5 0.5 -0.5
v 0.5 0.5 -0.5

# Left face (-X)
v -0.5 -0.5 -0.5
v -0.5 -0.5 0.5
v -0.5 0.5 0.5
v -0.5 0.5 -0.5

# Right face (+X)
v 0.5 -0.5 0.5
v 0.5 -0.5 -0.5
v 0.5 0.5 -0.5
v 0.5 0.5 0.5

# Top face (+Y)
v -0.5 0.5 0.5
v 0.5 0.5 0.5
v 0.5 0.5 -0.5
v -0.5 0.5 -0.5

# Bottom face (-Y)
v -0.5 -0.5 -0.5
v 0.5 -0.5 -0.5
v 0.5 -0.5 0.5
v -0.5 -0.5 0.5

# --- UVs (shared by all faces) ---
vt 0 0
vt 1 0
vt 1 1
vt 0 1

# --- Normals (one per face) ---
vn 0 0 1
vn 0 0 -1
vn -1 0 0
vn 1 0 0
vn 0 1 0
vn 0 -1 0

# --- Faces ---
# Front (+Z)
f 1/1/1 2/2/1 3/3/1
f 1/1/1 3/3/1 4/4/1
# Back (-Z)
f 5/1/2 6/2/2 7/3/2
f 5/1/2 7/3/2 8/4/2
# Left (-X)
f 9/1/3 10/2/3 11/3/3
f 9/1/3 11/3/3 12/4/3
# Right (+X)
f 13/1/4 14/2/4 15/3/4
f 13/1/4 15/3/4 16/4/4
# Top (+Y)
f 17/1/5 18/2/5 19/3/5
f 17/1/5 19/3/5 20/4/5
# Bottom (-Y)
f 21/1/6 22/2/6 23/3/6
f 21/1/6 23/3/6 24/4/6
